<?xml version="1.0" encoding="utf-8"?><!-- Uploaded to: SVG Repo, www.svgrepo.com, Generator: SVG Repo Mixer Tools -->
<svg fill="#000000" width="800px" height="800px" viewBox="0 0 16 16" id="request-approval-16px" xmlns="http://www.w3.org/2000/svg">
  <path id="Path_47" data-name="Path 47" d="M-19,12a2,2,0,0,0,2-2,2,2,0,0,0-2-2,2,2,0,0,0-2,2A2,2,0,0,0-19,12Zm0-3a1,1,0,0,1,1,1,1,1,0,0,1-1,1,1,1,0,0,1-1-1A1,1,0,0,1-19,9Zm2.5,4h-5A2.5,2.5,0,0,0-24,15.5,1.5,1.5,0,0,0-22.5,17h7A1.5,1.5,0,0,0-14,15.5,2.5,2.5,0,0,0-16.5,13Zm1,3h-7a.5.5,0,0,1-.5-.5A1.5,1.5,0,0,1-21.5,14h5A1.5,1.5,0,0,1-15,15.5.5.5,0,0,1-15.5,16ZM-8,3.5v5A2.5,2.5,0,0,1-10.5,11h-2.793l-1.853,1.854A.5.5,0,0,1-15.5,13a.489.489,0,0,1-.191-.038A.5.5,0,0,1-16,12.5v-2a.5.5,0,0,1,.5-.5.5.5,0,0,1,.5.5v.793l1.146-1.147A.5.5,0,0,1-13.5,10h3A1.5,1.5,0,0,0-9,8.5v-5A1.5,1.5,0,0,0-10.5,2h-7A1.5,1.5,0,0,0-19,3.5v3a.5.5,0,0,1-.5.5.5.5,0,0,1-.5-.5v-3A2.5,2.5,0,0,1-17.5,1h7A2.5,2.5,0,0,1-8,3.5Zm-6.854,4.354-2-2a.5.5,0,0,1,0-.708.5.5,0,0,1,.708,0L-14.5,6.793l2.646-2.647a.5.5,0,0,1,.708,0,.5.5,0,0,1,0,.708l-3,3A.5.5,0,0,1-14.5,8,.5.5,0,0,1-14.854,7.854Z" transform="translate(24 -1)"/>
</svg>